<svg width="98" height="30" viewBox="0 0 98 30" fill="none" xmlns="http://www.w3.org/2000/svg">
<g id="Group">
<path id="Vector" d="M51.0125 7.5974H48.1163L46.4829 10.2156H49.3776L51.0125 7.5974ZM58.5256 14.4863C57.0084 14.6104 54.3279 15.952 52.8679 18.8835C51.4079 21.8149 51.4026 23.6245 51.4026 23.6245C51.4026 23.6245 52.1726 22.7901 53.3529 21.9164C54.5333 21.0428 55.4118 20.7324 55.4118 20.7324C55.4118 20.7324 55.6308 19.6561 56.176 18.5304C56.7061 17.4355 57.5473 16.2955 58.5881 16.0368C60.6978 15.5118 59.6875 19.3184 58.1379 21.8005C57.305 23.1345 54.3506 26.9684 51.8072 26.9684C49.2638 26.9684 48.7729 24.5442 49.3093 22.2776C49.8452 20.0115 50.5871 17.1323 54.2978 11.9007C58.0086 6.66911 62.025 3.56763 64.3499 2.26429C66.7378 0.926456 67.7108 1.51274 67.7108 1.51274C67.7108 1.51274 64.6625 3.36885 62.9283 5.60191C61.2701 7.73631 60.2806 10.138 61.0501 11.3149C61.7828 12.4362 64.3655 12.4573 67.2093 8.39828C70.0163 4.3915 69.3074 2.00898 69.3074 2.00898C69.3074 2.00898 69.6466 1.89977 69.8744 1.86959C71.2432 1.68949 72.3398 2.04634 74.0377 2.9071C75.8165 3.80904 77.5231 5.2556 79.8616 6.4392C80.5656 5.67664 81.3491 4.86666 82.1734 4.07632C79.0209 2.55935 76.6276 0.397168 73.5357 0.189764C70.8445 0.00966208 68.7226 0.979146 68.7226 0.979146C68.7226 0.979146 67.9017 -0.125893 65.3694 0.234789C62.8372 0.59595 55.0353 3.82054 48.3974 14.3287C42.3957 23.8295 45.2235 29.2743 49.5375 29.212C54.214 29.144 58.6627 24.0029 60.1682 19.7634C61.6737 15.5238 59.8944 14.3747 58.5256 14.4863ZM67.706 5.65796C66.92 7.5519 65.7629 8.87536 64.6242 9.88603C63.1637 11.1827 62.3623 11.1391 62.0154 10.8785C61.1092 10.1964 62.325 7.62423 64.4352 5.3241C66.5367 3.03307 68.3461 2.32033 68.3461 2.32033C68.3461 2.34715 68.647 3.38705 67.706 5.65796ZM93.7475 2.89608C91.6077 4.2569 88.6408 5.48935 85.793 5.21776C85.073 5.95685 84.3006 6.8085 83.5258 7.74014C88.4683 8.70388 92.7915 5.67712 95.0931 3.09821C96.5288 1.49023 97.2377 0.0546875 97.2377 0.0546875C97.2377 0.0546875 95.8669 1.54819 93.7475 2.89608Z" fill="#343A40"/>
<path id="Vector_2" d="M91.4094 14.8362H88.364L87.8693 15.5921C87.8693 15.5921 87.2481 14.4842 86.1961 14.5019C84.3936 14.5326 82.5896 15.8929 80.4934 18.2524C78.9568 19.9811 76.41 23.8298 76.41 23.8298C76.41 23.8298 74.4558 26.8068 73.4673 26.5735C71.782 26.1755 74.8817 20.0113 74.8817 20.0113C74.8817 20.0113 76.5113 19.0164 78.623 17.26C79.9526 16.1544 81.4823 14.6336 82.8885 13.224C84.1673 11.9417 85.6742 10.2005 87.1066 8.29319C86.7398 8.35067 86.3638 8.38947 85.9805 8.40815C84.6959 10.0827 83.3246 11.5815 82.1583 12.7727C80.4221 14.546 78.825 15.9969 77.6645 16.9223C76.5525 17.8084 75.8392 18.2074 75.8392 18.2074C75.8392 18.2074 77.9606 13.9008 81.4964 9.14245C85.0322 4.38461 89.9829 -0.035549 89.5948 2.06149C89.4838 2.66358 89.1054 3.52721 88.5341 4.55225C88.9363 4.46939 89.3268 4.36592 89.7038 4.24809C90.5557 2.50982 90.8459 1.07715 90.2102 0.663303C87.6159 -1.02563 81.0172 5.96289 77.7091 10.0219C74.4015 14.0809 71.4079 20.2838 71.4079 20.2838C71.4079 20.2838 70.8904 20.4984 70.3182 20.6057C69.9572 20.6737 69.8031 20.6589 69.744 20.6359C69.7144 20.6239 69.711 20.6038 69.711 20.6038C69.711 20.6038 72.6208 15.2266 69.6417 14.5134C66.7669 13.8256 61.7856 19.083 60.0146 22.7401C58.7993 25.2491 58.1136 28.4076 60.1977 29.1596C62.4548 29.9744 66.2886 25.901 67.1899 24.7174C68.0911 23.5333 69.2163 21.5647 69.2163 21.5647C69.2163 21.5647 69.7667 21.5359 70.0676 21.4923C70.6433 21.4085 70.9127 21.3386 70.9127 21.3386C70.9127 21.3386 70.5396 22.3047 70.136 23.5295C69.3835 25.8133 68.7046 29.081 71.4137 29.2348C73.1397 29.332 75.672 26.2507 75.672 26.2507C75.672 26.2507 74.9907 28.9905 77.2309 29.2348C78.8846 29.4149 81.2914 26.8892 81.2914 26.8892C81.2914 26.8892 80.7671 29.0652 82.4437 29.2568C83.879 29.4211 85.9165 27.7576 87.5873 25.9274C89.4116 23.929 90.811 21.7405 90.811 21.7405H89.7503C89.7503 21.7405 87.4027 25.263 85.7542 26.2056C84.4008 26.9797 84.8645 25.7396 85.275 25.0896C85.7275 24.3725 91.408 14.8362 91.408 14.8367L91.4094 14.8362ZM68.2065 21.4708C68.1648 21.5652 67.4026 22.8762 66.5871 23.907C65.7086 25.0177 64.1003 26.6894 63.1337 26.3359C61.6223 25.7832 63.2853 22.5284 64.3727 20.9496C65.46 19.3709 65.5836 19.2641 65.6141 19.2229C65.6446 19.1817 65.6751 19.1438 65.7018 19.1927C65.7285 19.2416 66.0744 19.8901 66.7576 20.4529C67.4438 21.0181 68.1037 21.3166 68.157 21.3352C68.2103 21.3539 68.2486 21.3764 68.2065 21.4703V21.4708ZM68.8863 20.2977C68.7908 20.4548 68.7225 20.4625 68.5243 20.4103C68.1755 20.3169 66.73 19.6564 66.7412 18.1911C66.7514 16.7632 68.7875 15.3646 69.586 15.9624C70.3312 16.5199 69.9751 17.9454 69.6941 18.6725C69.4135 19.3991 68.9488 20.1948 68.8863 20.2977ZM82.7214 23.8298C82.3192 24.3749 81.9829 24.8673 81.6796 25.2132C81.0312 25.9532 80.6082 26.2976 80.2312 26.3886C80.0413 26.4341 79.8058 26.4231 79.6498 26.3297C79.0964 25.9968 79.484 24.7006 80.4473 22.9581C81.3287 21.3654 82.3473 19.7718 84.0214 17.9373C85.7023 16.0955 86.3454 16.0069 86.8159 16.028C87.2117 16.0448 87.2679 16.4562 87.2679 16.4562C87.2679 16.4562 87.2398 16.5515 87.1768 16.6593C86.622 17.6101 83.8271 22.3311 82.7209 23.8298H82.7214ZM37.7996 26.1338C35.9529 25.0058 33.584 24.282 30.8622 24.2585C23.8507 24.1982 16.2165 27.5655 11.0458 27.611C4.94716 27.6637 4.64334 23.0256 5.09543 20.4788C6.06842 14.9919 10.0054 9.75748 12.5368 6.99752C15.0686 4.23755 17.7215 2.09597 19.9272 1.54848C22.1329 1.00099 21.9255 2.65927 21.6556 2.88583C21.377 2.89158 20.8425 2.95098 20.5392 3.15838C20.0643 3.48218 19.4301 4.07518 19.3903 5.01544C19.322 6.46392 21.2157 6.71778 22.5845 3.6848C23.5183 1.61602 22.0375 0.212091 20.8077 0.0770144C19.1209 -0.108835 16.5431 0.470747 13.4661 2.42552C8.11083 5.82733 0.947631 13.3815 0.764954 21.763C0.660774 26.5443 3.82057 29.2348 8.15589 29.2348C12.4912 29.2348 18.3771 26.6104 24.1244 26.5433C27.683 26.5132 29.9861 27.7461 31.1525 29.754C31.1525 29.754 32.3115 27.8481 34.8927 27.7461C37.4464 27.6445 40.2578 28.352 42.5657 29.9557C41.7957 28.8559 39.6191 27.2451 37.7991 26.1338H37.7996Z" fill="#343A40"/>
<path id="Vector_3" d="M21.832 7.304C18.8927 6.56347 14.0113 11.5096 11.9544 15.535C10.6858 18.0181 10.1295 21.1388 12.388 21.9507C14.6466 22.7626 18.4784 18.6921 19.3797 17.5085C20.281 16.3244 21.756 13.9529 21.756 13.9529C21.756 13.9529 22.2085 13.8667 22.5051 13.7987C22.8016 13.7307 23.2809 13.5956 23.2809 13.5956C23.2809 13.5956 22.7251 14.5746 22.2236 15.5781C21.629 16.768 20.0135 20.7288 23.1326 21.9167C26.1126 23.0514 30.3549 18.3194 30.5778 18.2298C30.5778 18.2298 29.315 21.4544 31.2765 21.9507C33.4289 22.4948 35.7877 19.7689 35.7877 19.7689C35.7877 19.7689 35.2911 21.8151 36.9681 22.0072C39.9714 22.3506 45.2836 14.7571 45.2836 14.7571H44.2224C44.2224 14.7571 41.5191 18.1958 40.219 18.9062C38.9189 19.6165 39.3865 18.3544 39.7398 17.7901C40.1904 17.0721 45.9334 7.58612 45.9334 7.58612H42.8879L42.5347 8.1384C42.5347 8.1384 41.9072 7.19143 40.8581 7.25897C37.8059 7.45584 34.1742 12.2649 32.5771 14.3845C30.9805 16.5045 27.5358 20.552 25.7221 19.8306C23.7456 19.0441 25.7109 15.4335 27.011 13.3135C28.4264 11.0057 30.9349 8.7199 31.9268 8.70218C33.1474 8.67967 32.6682 9.77321 32.6682 9.77321C32.6682 9.77321 31.7558 9.66065 31.0943 10.4836C30.6263 11.0655 30.2386 11.9153 30.6834 12.3775C31.402 13.1243 32.3377 12.366 32.8964 11.5201C34.6384 8.8842 33.364 7.49512 31.9956 7.2925C29.0805 6.85997 26.3951 10.5621 24.3537 11.9378C22.9373 12.8915 22.3457 12.8172 22.3457 12.8172C22.3457 12.8172 24.8029 8.05219 21.8325 7.30352L21.832 7.304ZM35.0289 15.8282C35.9103 14.235 37.1111 12.697 38.6738 10.769C40.2365 8.84109 41.0142 8.68494 41.4847 8.70601C41.8806 8.72326 41.9368 9.13423 41.9368 9.13423C41.9368 9.13423 38.5415 14.9823 37.3097 16.6511C36.9076 17.1962 36.5635 17.6579 36.2602 18.0042C35.6119 18.7443 35.1409 19.1021 34.7774 19.1912C34.5875 19.2372 34.352 19.2257 34.1955 19.1318C33.6421 18.7989 34.0642 17.5703 35.0284 15.8282H35.0289ZM20.6192 13.9304C20.577 14.0243 19.6074 15.6093 18.7924 16.6401C17.9144 17.7509 16.2916 19.4292 15.3249 19.0757C13.8136 18.523 15.4257 15.2907 16.5131 13.7125C17.6004 12.1337 17.7598 11.9306 17.7908 11.8899C17.8214 11.8482 17.8514 11.8104 17.8781 11.8597C17.9047 11.9086 18.2507 12.6117 18.9998 13.085C19.7489 13.5587 20.517 13.7766 20.5703 13.7953C20.6236 13.814 20.6618 13.837 20.6197 13.9304H20.6192ZM21.8834 11.4631C21.6024 12.1907 21.3514 12.6491 21.2995 12.7573C21.2162 12.9307 21.0073 12.8752 21.0073 12.8752C20.7694 12.8646 18.9199 12.4474 18.9305 10.9822C18.9407 9.55431 20.9773 8.15565 21.7753 8.75343C22.5206 9.31098 22.1644 10.7365 21.8834 11.4631ZM89.118 27.4965C88.9402 27.3968 88.7425 27.3475 88.5249 27.3475C88.3074 27.3475 88.1096 27.3973 87.9318 27.4965C87.754 27.5961 87.6144 27.7312 87.5122 27.9031C87.4104 28.0746 87.3591 28.2614 87.3591 28.4626C87.3591 28.6638 87.41 28.8539 87.5122 29.0245C87.614 29.1945 87.754 29.3296 87.9318 29.4287C88.1096 29.5284 88.3074 29.5777 88.5249 29.5777C88.7425 29.5777 88.9402 29.5279 89.118 29.4287C89.2958 29.3296 89.4354 29.1945 89.5376 29.0245C89.6394 28.8544 89.6908 28.6671 89.6908 28.4626C89.6908 28.2581 89.6399 28.0746 89.5376 27.9031C89.4359 27.7316 89.2958 27.5961 89.118 27.4965ZM89.3269 28.9243C89.2498 29.0604 89.1413 29.1672 89.0022 29.2453C88.8631 29.3229 88.7037 29.3617 88.5249 29.3617C88.3461 29.3617 88.1867 29.3229 88.0476 29.2453C87.9086 29.1677 87.8005 29.0609 87.723 28.9243C87.6459 28.7883 87.6072 28.6341 87.6072 28.4626C87.6072 28.2911 87.6459 28.1412 87.723 28.0051C87.8 27.8691 87.909 27.7623 88.0496 27.6842C88.1901 27.6061 88.3485 27.5678 88.5249 27.5678C88.7013 27.5678 88.8597 27.6066 89.0003 27.6842C89.1408 27.7618 89.2498 27.8686 89.3269 28.0051C89.4039 28.1412 89.4427 28.294 89.4427 28.4626C89.4427 28.6312 89.4039 28.7883 89.3269 28.9243Z" fill="#343A40"/>
<path id="Vector_4" d="M88.9628 28.4445C88.9958 28.3913 89.0122 28.3319 89.0122 28.2668C89.0122 28.1767 88.9827 28.1015 88.9236 28.0402C88.8645 27.9789 88.785 27.9482 88.6861 27.9482H88.095V28.9575H88.3552V28.5896H88.5534L88.7932 28.9575H89.0907L88.8223 28.5652C88.8829 28.5379 88.9299 28.4976 88.9628 28.4445ZM88.7147 28.3381C88.6953 28.3559 88.6692 28.3645 88.6362 28.3645H88.3552V28.1686H88.6362C88.6692 28.1686 88.6953 28.1777 88.7147 28.1949C88.7341 28.2126 88.7438 28.2366 88.7438 28.2663C88.7438 28.296 88.7341 28.3199 88.7147 28.3377V28.3381Z" fill="#343A40"/>
</g>
</svg>
