<svg width="100" height="100" viewBox="0 0 100 100" fill="none" xmlns="http://www.w3.org/2000/svg">
<g id="Group">
<path id="Vector" fill-rule="evenodd" clip-rule="evenodd" d="M61.8981 33.6571V31.6772H53.9777V42.5476H61.8981V40.7546H56.1817V37.8035H61.1878V35.861H56.1817V33.6571H61.8981ZM59.6941 43.6683V47.8521H55.3599V43.6683H53.1196V54.5018H55.3599V49.6451H59.6941V54.5018H61.8981V43.6683H59.6941ZM61.8981 57.5639V55.6225H53.9777V66.6412H61.8981V64.6625H56.1817V61.7482H61.1878V59.9557H56.1817V57.5639H61.8981ZM52.7082 31.6772H50.5042V35.861H46.171V31.6772H43.967V42.5476H46.171V37.6914H50.5042V42.5476H52.7082V31.6772ZM34.4788 31.6772V33.6571H37.8408V42.5476H40.0447V33.6571H43.4067V31.6772H34.4788ZM27.5307 43.3694C24.0567 43.3694 22.2263 45.3493 22.2263 49.0848C22.2263 53.0071 24.0567 54.9496 27.5307 54.9496C31.0048 54.9496 32.7978 53.0071 32.7978 49.0848C32.7978 45.3493 31.0048 43.3694 27.5307 43.3694ZM24.617 49.0848C24.617 46.582 25.5883 45.3493 27.5307 45.3493C29.6226 45.3493 30.5939 46.582 30.5939 49.0848C30.5939 51.7375 29.6226 53.0071 27.5307 53.0071C25.5883 53.0071 24.617 51.7375 24.617 49.0848ZM19.0511 43.6683V51.3261L14.7179 43.6683H12.3645V54.5018H14.4564V46.8808L18.9017 54.5018H21.255V43.6683H19.0511ZM29.3238 60.1046V57.5639H34.8897V55.6225H27.1198V66.6412H29.3238V62.0471H34.2173V60.1046H29.3238ZM52.2978 45.6108V43.6683H43.4067V45.6108H46.7313V54.5018H48.9726V45.6108H52.2978ZM38.5132 50.3554C39.2229 50.3554 39.7833 50.4669 40.0447 50.7658L40.4556 54.5018H42.9585V54.2403C42.697 54.0904 42.5475 53.4185 42.5475 52.1479C42.5475 50.6169 41.9872 49.7945 41.1654 49.3836C42.2861 48.9354 42.8464 48.1136 42.8464 46.7314C42.8464 44.7889 41.7257 43.6683 39.3723 43.6683H33.9185V54.5018H36.1598V50.3554H38.5132ZM36.1598 48.5245V45.6108H38.9241C40.0447 45.6108 40.6051 46.0217 40.6051 46.9929C40.6051 47.9641 40.0447 48.5245 38.812 48.5245H36.1598ZM40.0447 55.6225H37.3925L33.5076 66.6412H35.861L36.7201 64.251H40.7545L41.4269 66.6412H43.8176L40.0447 55.6225ZM38.6626 58.1242L40.0447 62.4585H37.2805L38.6626 58.1242ZM50.9156 59.2449H53.1196C53.007 58.2742 52.7082 57.4524 52.0353 56.7421C51.0645 55.9203 49.9439 55.36 48.4123 55.36C46.8807 55.36 45.7601 55.9203 44.7889 56.892C43.967 57.8628 43.4067 59.2449 43.4067 61.0758C43.4067 64.9608 45.0503 66.9022 48.2629 66.9022C51.0645 66.9022 52.5956 65.5201 53.1196 62.8684H50.9156C50.6168 64.1379 49.645 64.8108 48.4123 64.8108C46.5819 64.8108 45.7601 63.5786 45.7601 61.1874C45.7601 58.573 46.5819 57.3024 48.4123 57.3024C49.645 57.3024 50.3553 58.0127 50.9156 59.2449ZM23.2349 66.4923C23.6084 66.4923 23.9073 66.3424 24.1319 66.1561C24.3187 65.932 24.4676 65.6332 24.4676 65.2228C24.4676 64.774 24.3182 64.4752 24.1319 64.2884C23.9078 64.1021 23.609 63.9895 23.2349 63.9895H23.1975C22.7493 63.9895 22.4504 64.1021 22.2636 64.2884C22.0774 64.4746 21.9648 64.774 21.9648 65.2228V65.2591C21.9648 65.6332 22.0769 65.932 22.2636 66.1561C22.4504 66.3424 22.7498 66.4923 23.1975 66.4923H23.2349ZM23.1975 66.7912C22.6746 66.7912 22.301 66.6049 22.0395 66.3424C21.778 66.0809 21.666 65.7079 21.666 65.2591V65.2228C21.666 64.6988 21.778 64.3257 22.0395 64.0648C22.301 63.8033 22.6746 63.6907 23.1975 63.6907H23.2349C23.6831 63.6907 24.0567 63.8033 24.3182 64.0648C24.5797 64.3263 24.7664 64.6993 24.7664 65.2228C24.7664 65.7084 24.5797 66.0809 24.3182 66.3424C24.1765 66.4854 24.0077 66.5988 23.8217 66.6758C23.6357 66.7529 23.4362 66.7921 23.2349 66.7912H23.1975ZM23.3469 65.0728H23.3843C23.5337 65.0728 23.6084 64.9976 23.6084 64.8114V64.774C23.6084 64.774 23.5711 64.774 23.5711 64.7366C23.5337 64.6993 23.459 64.6993 23.3469 64.6993H22.936V65.0734L23.3469 65.0728ZM23.6084 65.3343L23.9073 65.7084C23.9446 65.7826 23.9073 65.8573 23.8699 65.8947C23.7952 65.9699 23.6831 65.932 23.6458 65.8947L23.2722 65.3717H22.936V65.7821C22.936 65.8573 22.8613 65.932 22.7866 65.932C22.7119 65.932 22.6372 65.8568 22.6372 65.7821V64.5499C22.6372 64.4746 22.7119 64.401 22.7866 64.401H23.3843C23.5337 64.401 23.6831 64.4373 23.7579 64.5125C23.7952 64.5499 23.8326 64.5499 23.8326 64.5877C23.9073 64.663 23.9073 64.7366 23.9073 64.8119C23.9073 65.1102 23.8326 65.2591 23.6084 65.3343ZM63.4291 31.6772C70.3777 31.6772 76.3914 34.2174 81.2476 39.0736C86.2532 44.0792 88.7565 50.056 88.7565 57.0409V66.6412H78.5959V56.7421C78.5959 52.8582 77.2137 49.4957 74.4121 46.7314C73.7392 46.0217 73.0299 45.4613 72.2081 44.901C69.9668 43.3694 67.3146 42.697 64.5503 42.697H63.4296V31.6772H63.4291ZM77.6236 66.6412H69.7043V58.9834C69.7043 57.7139 69.2939 56.7421 68.4347 55.9203C67.6129 55.0621 66.4923 54.6507 65.3716 54.6507H63.4291V43.6683H64.5498C67.463 43.6683 69.9658 44.4901 72.2076 46.1711C72.7679 46.4326 73.3283 46.9929 73.7387 47.4038C76.3914 50.0565 77.6236 53.1197 77.6236 56.7426V66.6412ZM68.7336 66.6412H63.4286V55.6225H65.3716C66.2308 55.6225 67.0526 55.9203 67.7618 56.5932C68.3221 57.1535 68.7336 58.0127 68.7336 58.9834V66.6412Z" fill="#343A40"/>
</g>
</svg>
